<svg xmlns="http://www.w3.org/2000/svg" viewBox="0 0 200 200" width="200" height="200">
  <!-- Background circle -->
  <circle cx="100" cy="85" r="60" fill="#4CAF50"/>
  <!-- Globe effect -->
  <ellipse cx="100" cy="85" rx="60" ry="60" fill="none" stroke="#2E7D32" stroke-width="2"/>
  <path d="M40 85 Q70 60, 100 85 Q130 110, 160 85" fill="none" stroke="#81C784" stroke-width="3"/>
  <path d="M50 65 Q100 45, 150 65" fill="none" stroke="#A5D6A7" stroke-width="2"/>
  <path d="M50 105 Q100 125, 150 105" fill="none" stroke="#A5D6A7" stroke-width="2"/>
  <!-- Leaf -->
  <path d="M95 55 Q80 40, 95 25 Q110 40, 95 55" fill="#81C784" stroke="#2E7D32" stroke-width="1"/>
  <path d="M95 55 L95 35" fill="none" stroke="#2E7D32" stroke-width="1"/>
  <!-- Spray bottle -->
  <rect x="140" y="30" width="20" height="35" rx="3" fill="#E8F5E9" stroke="#2E7D32" stroke-width="2"/>
  <rect x="145" y="20" width="10" height="12" fill="#2E7D32"/>
  <circle cx="165" cy="25" r="3" fill="#81C784"/>
  <!-- Hands -->
  <path d="M30 130 Q50 100, 70 120 Q85 140, 100 150" fill="none" stroke="#8FAF93" stroke-width="8" stroke-linecap="round"/>
  <path d="M170 130 Q150 100, 130 120 Q115 140, 100 150" fill="none" stroke="#8FAF93" stroke-width="8" stroke-linecap="round"/>
  <!-- Text -->
  <text x="100" y="180" font-family="Arial, sans-serif" font-size="16" font-weight="bold" fill="#2E7D32" text-anchor="middle">THE GREEN GLEAM</text>
</svg>